<?xml version="1.0" encoding="utf-8"?>
<!-- Generator: Adobe Illustrator 23.0.3, SVG Export Plug-In . SVG Version: 6.00 Build 0)  -->
<svg version="1.1" id="Layer_1" xmlns="http://www.w3.org/2000/svg" xmlns:xlink="http://www.w3.org/1999/xlink" x="0px" y="0px"
	 viewBox="0 0 2000 2000" style="enable-background:new 0 0 2000 2000;" xml:space="preserve">
<style type="text/css">
	.st0{fill:#72BF44;}
	.st1{fill:#00AEEF;}
	.st2{fill:none;}
</style>
<g>
	<g>
		<path class="st0" d="M578.4,1331.8h-19.2v-40.9h-40.5v40.9H500v-97.4h18.7v39.2h40.5v-39.2h19.2V1331.8z"/>
		<path class="st0" d="M712.9,1234.1l-33.8,53.1v44.6h-17.6v-44.7l-34.7-53h22.6l21.4,36.4l20-36.4H712.9z"/>
		<path class="st0" d="M839.3,1282.1c0,7.1-0.9,13.7-2.6,19.8c-1.7,6.1-4.1,11.3-7.1,15.8c-3,4.4-6.6,7.9-10.8,10.4
			c-4.2,2.5-8.8,3.8-13.7,3.8h-38.2v-60.8h17.7v43.3h20.4c2.4,0,4.6-0.9,6.7-2.7c2.1-1.8,4-4.1,5.7-6.8c1.7-2.7,2.9-6.1,3.5-10.1
			c0.6-4,1-7.8,1-11.3c0-3.4-0.3-7.4-1-11.9c-0.6-4.5-1.7-8-3.1-10.4c-1.4-2.5-3.3-4.7-5.7-6.7c-2.4-2-4.7-3-7.1-3h-33l-12.7-17.2
			h45.7c5,0,9.5,1.2,13.7,3.5c4.2,2.3,7.8,5.6,10.9,9.8c3,4.2,5.4,9.3,7.1,15.2C838.5,1268.6,839.3,1275.1,839.3,1282.1z"/>
		<path class="st0" d="M967.8,1269.2c-1.3,4.4-3.2,8.2-5.8,11.3c-2.5,3.1-5.6,5.6-9.3,7.3c-3.7,1.8-7.8,2.7-12.4,2.7l28.3,41.4h-19
			l-28.6-41.4h-9.3v41.3h-18.5v-57.4h49c3.1-0.4,5.5-1.5,7.3-3.2c1.8-1.7,2.8-4.4,3-8c0-3.9-1-6.8-3-8.8c-2-2-4.4-3-7.3-3h-39.5
			l-14.2-17.2h52c4.7,0,8.8,0.9,12.5,2.7c3.7,1.8,6.7,4.3,9.2,7.5c2.5,3.2,4.4,7,5.7,11.5C969.1,1260.3,969.1,1264.8,967.8,1269.2z"
			/>
		<path class="st0" d="M1060.2,1234.1c13.8,0,24.1,4,31,11.9c6.9,7.9,10.4,20.5,10.4,37.6c0,17.3-3.4,29.9-10.3,37.8
			c-6.9,7.9-17.2,11.9-31,11.9c-13.9,0-24.2-4-31.1-11.9c-6.9-7.9-10.3-20.6-10.3-37.8c0-17.1,3.4-29.7,10.3-37.6
			C1036.1,1238.1,1046.4,1234.1,1060.2,1234.1z M1060.2,1315.8c4.4,0,8.1-0.9,11.2-2.6c3-1.7,5.5-4,7.4-7c1.9-2.9,3.2-5.9,4.1-9
			c0.8-3.1,1.3-7.2,1.3-12.2c0-5-0.4-9.1-1.3-12.2c-0.8-3.1-2.2-6-4.1-8.6c-1.9-2.6-4.4-4.9-7.4-6.9c-3-2-6.8-2.9-11.2-2.9
			c-4.4,0-8.1,1-11.2,2.9c-3,2-5.5,4.2-7.4,6.9c-1.9,2.6-3.2,5.5-4.1,8.6c-0.8,3.1-1.3,7.2-1.3,12.2c0,5,0.4,9.1,1.3,12.2
			c0.8,3.1,2.2,6.1,4.1,9c1.9,2.9,4.3,5.2,7.4,7C1052.1,1315,1055.8,1315.8,1060.2,1315.8z"/>
		<path class="st1" d="M1226.6,1281.5c2.7,1.3,4.9,3.8,6.8,7.5c1.8,3.7,2.8,8.5,2.8,14.3c0,4.1-0.4,7.9-1.2,11.3
			c-0.8,3.5-2.1,6.5-4,9c-1.9,2.5-4.4,4.5-7.6,6c-3.2,1.5-7.2,2.2-12,2.2h-53.5v-57.4h50.4c1.4,0,3.2-0.5,5.4-1.4
			c2.2-0.9,3.5-4.4,4-10.5c-0.6-4.4-1.9-7.3-3.7-9c-1.8-1.6-3.7-2.4-5.7-2.4h-45.2l-14-17.2h61.8c3.7,0,7,0.6,9.9,1.7
			c2.9,1.1,5.4,2.8,7.5,5.1c2.1,2.3,3.7,5.1,4.8,8.5c1.1,3.4,1.7,7.3,1.7,11.7c0,3-0.3,5.6-0.7,7.8c-0.5,2.2-1.1,4.2-1.9,5.9
			c-0.7,1.7-1.6,3.1-2.6,4.2C1228.7,1280.1,1227.6,1280.9,1226.6,1281.5z M1176.2,1290.5v25h31.9c2.1,0,4.2-0.6,6.2-1.8
			c2-1.2,3.1-4.9,3.1-11.2c-0.4-5-1.5-8.3-3.3-9.8c-1.9-1.5-3.8-2.2-5.9-2.2H1176.2z"/>
		<path class="st1" d="M1326.8,1234.1c13.8,0,24.1,4,31,11.9c6.9,7.9,10.4,20.5,10.4,37.6c0,17.3-3.4,29.9-10.3,37.8
			c-6.9,7.9-17.2,11.9-31,11.9c-13.9,0-24.2-4-31.1-11.9c-6.9-7.9-10.3-20.6-10.3-37.8c0-17.1,3.4-29.7,10.3-37.6
			C1302.7,1238.1,1313,1234.1,1326.8,1234.1z M1326.8,1315.8c4.4,0,8.1-0.9,11.2-2.6c3-1.7,5.5-4,7.4-7c1.9-2.9,3.2-5.9,4.1-9
			c0.8-3.1,1.3-7.2,1.3-12.2c0-5-0.4-9.1-1.3-12.2c-0.8-3.1-2.2-6-4.1-8.6c-1.9-2.6-4.4-4.9-7.4-6.9c-3-2-6.8-2.9-11.2-2.9
			c-4.4,0-8.1,1-11.2,2.9c-3,2-5.5,4.2-7.4,6.9c-1.9,2.6-3.2,5.5-4.1,8.6c-0.8,3.1-1.3,7.2-1.3,12.2c0,5,0.4,9.1,1.3,12.2
			c0.8,3.1,2.2,6.1,4.1,9c1.9,2.9,4.3,5.2,7.4,7C1318.7,1315,1322.4,1315.8,1326.8,1315.8z"/>
		<path class="st1" d="M1498.6,1234.1l-30.5,47.1l31.8,50.6h-19.7l-22.5-36l-23.8,36h-18.7l31.3-49.3l-30.2-48.4h19.6l21.6,33.7
			l21.5-33.7H1498.6z"/>
	</g>
	<g>
		<g>
			<path class="st1" d="M894.5,691.2l-198.6,15.9l93.2,25.4l-135.5,16.9l118.6,25.4l23.5,7.4C819.2,743.2,853.5,711.5,894.5,691.2z"
				/>
			<path class="st1" d="M1105.5,1118.8l198.6-15.9l-93.2-25.4l135.5-16.9l-118.6-25.4l-23.5-7.4
				C1180.8,1066.8,1146.5,1098.5,1105.5,1118.8z"/>
			<path class="st1" d="M1105.5,1118.8c41-20.3,75.4-52,98.9-91c21.6-35.9,34-77.9,34-122.8c0-131.6-106.7-238.4-238.4-238.4
				c-37.9,0-73.7,8.8-105.5,24.6c-41,20.3-75.4,52-98.9,91c-21.6,35.9-34,77.9-34,122.8c0,131.6,106.7,238.4,238.4,238.4
				C1037.9,1143.4,1073.7,1134.5,1105.5,1118.8z M799.7,905c0-110.6,89.7-200.3,200.3-200.3s200.3,89.7,200.3,200.3
				c0,110.6-89.7,200.3-200.3,200.3S799.7,1015.6,799.7,905z"/>
		</g>
		<g>
			<path class="st1" d="M1000,874.2c-17,0-30.8,13.8-30.8,30.8c0,17,13.8,30.8,30.8,30.8s30.8-13.8,30.8-30.8
				C1030.8,888,1017,874.2,1000,874.2z M1000,920.5c-8.6,0-15.5-6.9-15.5-15.5c0-8.6,6.9-15.5,15.5-15.5s15.5,6.9,15.5,15.5
				C1015.5,913.6,1008.6,920.5,1000,920.5z"/>
		</g>
		<g>
			<path class="st2" d="M997.5,935.7c0.4,0,0.8,0,1.2,0.1l1.9,0.1l1.8-0.1c15.2-1.2,27-13.1,28.3-28.2c0-0.4,0-0.8,0.1-1.1l0.1-2
				l-0.1-1.9c-1.2-15.2-13.1-27-28.2-28.3c-0.4,0-0.8,0-1.2-0.1l-1.9-0.1l-1.8,0.1c-15.2,1.2-27,13.1-28.3,28.2c0,0.4,0,0.8-0.1,1.1
				l-0.1,2l0.1,1.9C970.5,922.6,982.3,934.5,997.5,935.7z"/>
			<path class="st1" d="M1050.8,896.7c9.4-5.5,17.5-12.4,23.4-20.2c3.5-4.6,6.5-9.7,9.5-14.7c4-6.8,8.2-13.7,13.6-19.8
				c9.3-10.2,25.2-14.1,39.7-9.7c12.5,3.8,23.9,13.5,31.4,26.7c1.6,2.8,3.1,5.8,4.5,8.8c-3-7.5-6.7-14.5-10.9-20.8
				c-7.5-11.1-18.7-20.1-31.8-22.9c-13.1-2.9-28,1.3-36.1,11.9c-8.5,11-12.7,24.4-20.1,36c-5.7,8.9-13.6,16.7-22.4,22.8
				c-2.4,1.7-4.9,3.2-7.5,4.6c-1,0.7-2.1,1.4-3.2,2.1C1044.1,900.2,1047.4,898.6,1050.8,896.7z"/>
			<path class="st1" d="M1008.3,955.8c5.5,9.4,12.4,17.5,20.2,23.4c4.6,3.5,9.7,6.5,14.7,9.5c6.8,4,13.7,8.2,19.8,13.6
				c10.2,9.3,14.1,25.2,9.7,39.7c-3.8,12.5-13.5,23.9-26.7,31.4c-2.8,1.6-5.8,3.1-8.8,4.5c7.5-3,14.5-6.7,20.8-10.9
				c11.1-7.5,20.1-18.7,22.9-31.8c2.9-13.1-1.3-28-11.9-36.1c-11-8.5-24.4-12.7-36-20.1c-8.9-5.7-16.7-13.6-22.8-22.4
				c-1.7-2.4-3.2-4.9-4.6-7.5c-0.7-1-1.4-2.1-2.1-3.2C1004.8,949.1,1006.4,952.4,1008.3,955.8z"/>
			<path class="st1" d="M949.2,913.3c-9.4,5.5-17.5,12.4-23.4,20.2c-3.5,4.6-6.5,9.7-9.5,14.7c-4,6.8-8.2,13.7-13.6,19.8
				c-9.3,10.2-25.2,14.1-39.7,9.7c-12.5-3.8-23.9-13.5-31.4-26.7c-1.6-2.8-3.1-5.7-4.4-8.7c3,7.5,6.7,14.4,10.9,20.6
				c7.5,11.1,18.7,20.1,31.8,22.9c13.1,2.9,28-1.3,36.1-11.9c8.5-11,12.7-24.4,20.1-36c5.7-8.9,13.6-16.7,22.4-22.8
				c2.4-1.7,4.9-3.2,7.5-4.6c1-0.7,2.1-1.4,3.2-2.1C955.9,909.8,952.6,911.4,949.2,913.3z"/>
			<path class="st1" d="M991.7,854.2c-5.5-9.4-12.4-17.5-20.2-23.4c-4.6-3.5-9.7-6.5-14.7-9.5c-6.8-4-13.7-8.2-19.8-13.6
				c-7.4-6.7-11.5-17-11.5-27.6c0-4,0.6-8.1,1.8-12.1c3.8-12.5,13.5-23.9,26.7-31.4c2.8-1.6,5.8-3.1,8.8-4.5
				c-7.5,3-14.5,6.7-20.8,10.9c-11.1,7.5-20.1,18.7-22.9,31.8c-2.9,13.1,1.3,28,11.9,36.1c11,8.5,24.4,12.7,36,20.1
				c8.9,5.7,16.7,13.6,22.8,22.4c1.7,2.4,3.2,4.9,4.6,7.5c0.7,1,1.4,2.1,2.1,3.2C995.2,860.9,993.6,857.5,991.7,854.2z"/>
		</g>
		<g>
			<path class="st0" d="M1002.7,938.4c12.2,28,51.5,44.6,77.1,52.4c24.8,7.5,53,8,74.1-9c34.6-27.9,32.5-85.9,12.2-121.5
				c-6.6-11.6-17-21.5-29.8-25.4c-12.8-3.9-28-1-37,9c-9.3,10.3-14.6,23.3-23,34.3c-6.4,8.4-14.9,15.5-24.2,20.9
				c-5.9,3.4-12.2,6.1-18.7,7.4c0,0.4,0,0.8-0.1,1.3C1032.1,924.3,1018.8,937.1,1002.7,938.4z"/>
			<path class="st0" d="M1044.7,1071.1c11.6-6.6,21.5-17,25.4-29.8c3.9-12.8,1-28-9-37c-10.3-9.3-23.3-14.6-34.3-23
				c-8.4-6.4-15.5-14.9-20.9-24.2c-3.4-5.9-6.1-12.2-7.4-18.7c-0.4,0-0.8,0-1.3-0.1c-16.6-1.3-29.4-14.6-30.7-30.7
				c-28,12.2-44.6,51.5-52.4,77.1c-7.5,24.8-8,53,9,74.1C951.2,1093.6,1009.1,1091.4,1044.7,1071.1z"/>
			<path class="st0" d="M997.3,871.6c-12.2-28-51.5-44.6-77.1-52.4c-24.8-7.5-53-8-74.1,9c-34.6,27.9-32.5,85.9-12.2,121.5
				c6.6,11.6,17,21.5,29.8,25.4c12.8,3.9,28,1,37-9c9.3-10.3,14.6-23.3,23-34.3c6.4-8.4,14.9-15.5,24.2-20.9
				c5.9-3.4,12.2-6.1,18.7-7.4c0-0.4,0-0.8,0.1-1.3C967.9,885.7,981.2,872.9,997.3,871.6z"/>
			<path class="st0" d="M1033.4,902.3c28-12.2,44.6-51.5,52.4-77.1c7.5-24.8,8-53-9-74.1c-27.9-34.6-85.9-32.5-121.5-12.2
				c-11.6,6.6-21.5,17-25.4,29.8c-3.9,12.8-1,28,9,37c10.3,9.3,23.3,14.6,34.3,23c8.4,6.4,15.5,14.9,20.9,24.2
				c3.4,5.9,6.1,12.2,7.4,18.7c0.4,0,0.8,0,1.3,0.1C1019.3,872.9,1032.1,886.2,1033.4,902.3z"/>
		</g>
	</g>
</g>
</svg>
